<svg width="200" height="200" viewBox="0 0 200 200" version="1.1" xmlns="http://www.w3.org/2000/svg" xmlns:xlink="http://www.w3.org/1999/xlink">
<title>Ig</title>
<desc>Created using Figma</desc>
<g id="Canvas" transform="translate(226 -193)">
<g id="Ig">
<g id="Rectangle">
<use xlink:href="#path0_fill" transform="translate(-226 193)" fill="url(#paint0_linear)"/>
</g>
<g id="Subtract">
<use xlink:href="#path1_fill" transform="translate(-186 229)" fill="#FFFFFF"/>
</g>
<g id="Subtract">
<use xlink:href="#path2_fill" transform="translate(-161 254)" fill="#FFFFFF"/>
</g>
<g id="Ellipse">
<use xlink:href="#path3_fill" transform="translate(-96 247)" fill="#FFFFFF"/>
</g>
</g>
</g>
<defs>
<linearGradient id="paint0_linear" x1="0" y1="0" x2="1" y2="0" gradientUnits="userSpaceOnUse" gradientTransform="matrix(-200 200 -200 -200 300 100)">
<stop offset="0" stop-color="#8A3AB9"/>
<stop offset="0.386602" stop-color="#BC2A8D"/>
<stop offset="0.53823" stop-color="#CD486B"/>
<stop offset="0.842422" stop-color="#FBAD50"/>
<stop offset="1" stop-color="#FCCC63"/>
</linearGradient>
<path id="path0_fill" d="M 0 0L 200 0L 200 200L 0 200L 0 0Z"/>
<path id="path1_fill" fill-rule="evenodd" d="M 30 0C 13.4315 0 0 13.4315 0 30L 0 95C 0 111.569 13.4315 125 30 125L 95 125C 111.569 125 125 111.569 125 95L 125 30C 125 13.4315 111.569 0 95 0L 30 0ZM 30 10C 18.9543 10 10 18.9543 10 30L 10 96C 10 107.046 18.9543 116 30 116L 96 116C 107.046 116 116 107.046 116 96L 116 30C 116 18.9543 107.046 10 96 10L 30 10Z"/>
<path id="path2_fill" fill-rule="evenodd" d="M 37.5 76C 58.2107 76 75 58.9868 75 38C 75 17.0132 58.2107 0 37.5 0C 16.7893 0 0 17.0132 0 38C 0 58.9868 16.7893 76 37.5 76ZM 37 65C 51.9117 65 64 52.6878 64 37.5C 64 22.3122 51.9117 10 37 10C 22.0883 10 10 22.3122 10 37.5C 10 52.6878 22.0883 65 37 65Z"/>
<path id="path3_fill" d="M 15 7.5C 15 11.6421 11.6421 15 7.5 15C 3.35786 15 0 11.6421 0 7.5C 0 3.35786 3.35786 0 7.5 0C 11.6421 0 15 3.35786 15 7.5Z"/>
</defs>
</svg>
