<svg width="200" height="200" viewBox="0 0 200 200" version="1.1" xmlns="http://www.w3.org/2000/svg" xmlns:xlink="http://www.w3.org/1999/xlink">
<title>Vk</title>
<desc>Created using Figma</desc>
<g id="Canvas" transform="translate(456 267)">
<rect x="-456" y="-267" width="200" height="200" fill="#E5E5E5"/>
<g id="Sheet">
<g id="bg">
<use xlink:href="#path0_fill" transform="translate(-494 -313)" fill="#FFFFFF"/>
</g>
</g>
<g id="Vectors">
<g id="Rectangle">
<use xlink:href="#path1_fill" transform="translate(-476 -287)" fill="#E2E2E2"/>
</g>
<g id="Socials">
<g id="Vk">
<g id="Rectangle">
<use xlink:href="#path2_fill" transform="translate(-456 -267)" fill="#4C75A3"/>
</g>
<g id="Vector">
<use xlink:href="#path3_fill" transform="translate(-436 -212)" fill="#FFFFFF"/>
</g>
</g>
</g>
</g>
</g>
<defs>
<path id="path0_fill" d="M 0 0L 1000 0L 1000 1000L 0 1000L 0 0Z"/>
<path id="path1_fill" d="M 0 0L 522 0L 522 779L 0 779L 0 0Z"/>
<path id="path2_fill" d="M 0 0L 200 0L 200 200L 0 200L 0 0Z"/>
<path id="path3_fill" d="M 0.592567 5.29412C -0.230029 6.51585 -0.164339 7.88395 0.592586 9.36652C 6.89941 21.7195 12.6662 34.7196 21.9809 50.0905C 26.9167 58.2353 38.8449 74.1176 49.9504 81.448C 58.8348 87.3122 70.2127 89.5928 74.7911 90L 88.2026 90C 90.2592 90 91.9044 89.1855 92.7271 87.5566C 93.5501 85.9269 93.5498 83.9372 93.5497 83.1051L 93.5497 83.0769C 93.5497 82.2624 93.3487 78.2257 94.3723 75.3394C 95.0863 73.3262 95.6448 72.2278 96.8402 70.4525C 97.6628 69.2308 98.0742 68.4163 100.131 68.4163C 103.421 68.4163 104.244 69.638 104.244 69.638L 121.93 87.1493C 123.576 88.7783 125.632 89.5928 127.689 89.5928L 154.013 89.5928C 154.836 89.5928 158.895 89.0751 159.771 86.7421C 160.22 85.5497 159.989 84.738 159.771 83.4842C 159.332 80.9569 157.896 79.9308 156.481 77.7828C 153.492 73.2458 151.181 71.139 147.432 67.1946C 143.772 63.3448 138.794 59.457 137.56 57.8281C 136.326 56.1991 133.776 52.6154 133.447 51.3122C 133.118 50.009 133.859 48.5973 134.27 48.0543L 149.9 26.0633C 152.916 21.3122 159.113 11.4027 159.771 9.77376C 160.594 7.73756 160.183 6.92308 159.36 5.29412C 158.702 3.99095 154.836 4.0724 154.836 4.0724L 125.632 4.0724C 124.316 4.0724 123.576 6.92308 122.753 8.55204C 122.753 8.55204 113.156 28.2353 110.825 31.3575C 108.494 34.4796 104.244 39.9095 103.01 41.1312C 101.776 42.3529 98.4855 43.9819 97.2515 43.9819C 96.0176 43.9819 94.7837 42.7602 93.961 41.1312C 93.3029 39.8281 93.1384 37.3303 93.1384 36.2443L 93.5497 7.33032L 93.5497 7.33023C 93.5497 6.51572 93.5497 4.88685 93.1384 4.0724C 92.8441 3.4896 91.4931 2.0362 90.6705 1.62896C 90.0073 1.30063 88.2026 0.733032 86.5574 0.40724C 84.9121 0.081448 83.4039 0 82.8555 0L 64.7577 0C 61.8785 0 59.8219 0.40724 57.7653 1.22172C 55.7087 2.0362 54.8861 2.85068 54.0635 3.66516C 53.4131 4.30906 53.2409 5.29412 53.6522 5.70136C 54.3025 6.34525 56.9427 6.51584 58.588 7.33032C 59.7186 7.89001 61.0559 9.36652 61.4672 10.181L 61.4672 10.1811C 61.8785 10.9956 63.1124 13.439 63.1124 15.4751C 63.1124 17.5113 63.5237 28.914 63.5237 28.914C 63.5237 28.914 63.9351 35.0226 63.5237 36.6516L 63.5237 36.6517C 63.1124 38.2808 61.8784 43.1674 60.2332 43.9819C 58.588 44.7964 56.9005 44.6467 56.1201 44.3891C 54.8861 43.9819 53.2409 41.9457 52.0069 40.3167C 50.773 38.6878 48.3051 35.0226 47.8938 34.6154C 47.5647 34.2896 44.1919 28.7783 42.5467 26.0633L 36.7883 15.0679L 33.0864 6.51584C 32.0993 4.23529 29.3846 3.66516 28.1507 3.66516L 3.47179 3.66516C 3.06047 3.8009 1.52927 3.90292 0.592567 5.29412Z"/>
</defs>
</svg>
