<svg width="200" height="200" viewBox="0 0 200 200" version="1.1" xmlns="http://www.w3.org/2000/svg" xmlns:xlink="http://www.w3.org/1999/xlink">
<title>Yt</title>
<desc>Created using Figma</desc>
<g id="Canvas" transform="translate(456 37)">
<rect x="-456" y="-37" width="200" height="200" fill="#E5E5E5"/>
<g id="Sheet">
<g id="bg">
<use xlink:href="#path0_fill" transform="translate(-494 -313)" fill="#FFFFFF"/>
</g>
</g>
<g id="Vectors">
<g id="Rectangle">
<use xlink:href="#path1_fill" transform="translate(-476 -287)" fill="#E2E2E2"/>
</g>
<g id="Socials">
<g id="Yt">
<g id="Rectangle">
<use xlink:href="#path2_fill" transform="translate(-456 -37)" fill="#FF0000"/>
</g>
<g id="Group 2">
<g id="Subtract">
<use xlink:href="#path3_fill" transform="translate(-372 28)" fill="#FFFFFF"/>
</g>
<g id="Group">
<g id="Vector">
<use xlink:href="#path4_fill" transform="translate(-395 50.3167)" fill="#FFFFFF"/>
</g>
<g id="Subtract">
<use xlink:href="#path5_fill" transform="translate(-417.5 50.3167)" fill="#FFFFFF"/>
</g>
<g id="Vector">
<use xlink:href="#path6_fill" transform="translate(-440 39.3167)" fill="#FFFFFF"/>
</g>
</g>
</g>
</g>
</g>
</g>
</g>
<defs>
<path id="path0_fill" d="M 0 0L 1000 0L 1000 1000L 0 1000L 0 0Z"/>
<path id="path1_fill" d="M 0 0L 522 0L 522 779L 0 779L 0 0Z"/>
<path id="path2_fill" d="M 0 0L 200 0L 200 200L 0 200L 0 0Z"/>
<path id="path3_fill" fill-rule="evenodd" d="M 88.5 1.81672C 63.5 -0.183289 36.5 -1.18327 9.5 2.31673C 3.07083 5.66676 0.941193 9.64667 0 20.8167L 0 45.3167C 0.534332 57.0944 1.20569 59.3752 2.5 62.3167C 6.0228 66.7407 8.56696 68.7264 16.5 69.3167C 42.8771 71.0285 58.1079 70.9978 86 69.3167C 92.2952 68.7895 94.3136 66.8264 97 62.3167C 99.1516 56.3209 99.4114 52.9131 99.5 46.8167L 99.5 22.3167C 99.5127 19.6252 99.0624 13.7072 98 11.3167C 96 6.81673 93 3.31672 88.5 1.81672ZM 73.5 30.8167L 73.5 49.3167C 73.5 51.6761 74.6332 53.2546 76 54.8167C 77.3668 56.3788 79 57.3167 80.5 57.3167L 84.5 57.3167C 86 57.3167 87.4379 56.3788 89 54.8167C 89.9763 53.8404 91 52.5632 91 50.8167L 91 45.8167L 85 45.8167L 85 49.3167C 85 50.8167 85 52.3167 83 52.3167L 81 52.3167C 79 52.3167 79 50.8167 79 49.3167L 79 41.3167L 91 41.3167L 91 30.8167C 91 28.8936 90.2757 27.6836 89 26.3167C 87.5421 24.7546 85.7077 23.3167 84 23.3167L 79.5 23.3167C 78.3142 23.3167 76.2497 24.7546 75 26.3167C 73.9065 27.6836 73.5 28.9643 73.5 30.8167ZM 82 27.8167C 81.1625 27.8167 80.5012 28.0275 79.9883 28.3695C 79.4785 28.7093 79.145 29.1588 78.9278 29.5931C 78.7116 30.0255 78.606 30.4518 78.5537 30.7658C 78.5273 30.924 78.5139 31.0569 78.5071 31.1522C 78.5037 31.1999 78.502 31.2385 78.501 31.2664C 78.5005 31.2803 78.5003 31.2916 78.5002 31.3001L 78.5 31.3106L 78.5 31.3142L 78.5 31.3156L 78.5 31.3162C 78.5 31.3165 78.5 31.3167 79 31.3167L 78.5 31.3167L 78.5 36.8167L 78.5 37.3167L 79 37.3167L 85 37.3167L 85.5 37.3167L 85.5 36.8167L 85.5 31.3167L 85 31.3167C 85.5 31.3167 85.5 31.3165 85.5 31.3162L 85.5 31.3156L 85.5 31.3142L 85.5 31.3106L 85.4998 31.3001C 85.4997 31.2916 85.4995 31.2803 85.499 31.2664C 85.498 31.2385 85.4963 31.1999 85.4929 31.1522C 85.4861 31.0569 85.4727 30.924 85.4463 30.7658C 85.394 30.4518 85.2884 30.0255 85.0722 29.5931C 84.855 29.1588 84.5215 28.7093 84.0117 28.3695C 83.4988 28.0275 82.8375 27.8167 82 27.8167ZM 28 22.3167L 34 22.3167L 34 50.3167C 34 51.3167 35 52.3167 36 52.3167C 37 52.3167 39.5 50.8167 39.5 49.3167L 39.5 22.3167L 45.5 22.3167L 45.5 57.3167L 39.5 57.3167L 39.5 53.8167C 38 55.8167 36 57.3167 35 57.3167L 30 57.3167C 29 57.3167 28 54.8167 28 53.3167L 28 22.3167ZM 57.1714 11.3167L 51 11.3167L 51 57.3167L 57.1714 57.3167L 57.1714 53.8167C 58.7143 55.8167 60.7714 57.3167 61.8 57.3167L 65 57.3167C 67 57.3167 68.5 54.8167 68.5 53.3167L 68.5 31.8167L 68.5 27.3167C 68.5 25.8167 67 22.3167 65 22.3167L 61 22.3167C 58.6212 22.3167 57.6005 25.4857 57.224 26.6544L 57.2185 26.6716C 57.2014 26.7244 57.1858 26.773 57.1714 26.8167L 57.1714 11.3167ZM 58 34.0993L 58 45.8964C 58 48.766 58.8333 51.3167 59.6667 51.3167L 61.1945 51.3167C 62.0278 51.3167 63 48.766 63 45.8964L 63 34.0993C 63 31.5486 62.5833 29.3167 61.1945 29.3167L 59.6667 29.3167C 58.2778 29.3167 58 31.2298 58 34.0993ZM 15 56.8167L 22 56.8167L 22 18.3167L 29 18.3167L 29 11.3167L 8 11.3167L 8 18.3167L 15 18.3167L 15 56.8167Z"/>
<path id="path4_fill" d="M 6 0L 0 0L 0 31C 0 32.5 1 35 2 35L 7 35C 8 35 10 33.5 11.5 31.5L 11.5 35L 17.5 35L 17.5 0L 11.5 0L 11.5 27C 11.5 28.5 9 30 8 30C 7 30 6 29 6 28L 6 0Z"/>
<path id="path5_fill" fill-rule="evenodd" d="M 0 8L 0 26.5C 0 31 3 35 6 35L 11.5 35C 14.5 35 18 31 18 26.5L 18 8C 18 4 16.5 0 11.5 0L 6 0C 1 0 0 3.5 0 8ZM 6.5 11.7826L 6.5 23.5797C 6.5 26.4493 7.33334 29 8.16666 29L 9.69446 29C 10.5278 29 11.5 26.4493 11.5 23.5797L 11.5 11.7826C 11.5 9.23188 11.0833 7 9.69446 7L 8.16666 7C 6.77777 7 6.5 8.91304 6.5 11.7826Z"/>
<path id="path6_fill" d="M 8.5 27L 0 0L 7.5 0L 12 17.5L 12.5 17.5L 16.5 0L 23.5 0L 15.5 27L 15.5 46L 8.5 46L 8.5 27Z"/>
</defs>
</svg>
